<svg width="33" height="33" viewBox="0 0 33 33" fill="none" xmlns="http://www.w3.org/2000/svg">
<path d="M20.9472 3.07263C17.0264 3.07263 13.8449 6.25415 13.8449 10.1749C13.8449 14.0957 17.0264 17.2773 20.9472 17.2773C24.868 17.2773 28.0495 14.0957 28.0495 10.1749C28.0495 6.25415 24.868 3.07263 20.9472 3.07263Z" fill="white"/>
<path d="M8.76243 17.9637C6.34659 17.9637 4.36639 19.9307 4.36639 22.3598C4.36639 24.7888 6.33339 26.7558 8.76243 26.7558C11.1783 26.7558 13.1585 24.7888 13.1585 22.3598C13.1585 19.9307 11.1783 17.9637 8.76243 17.9637Z" fill="white"/>
<path d="M22.3069 22.7031C20.2607 22.7031 18.5974 24.3665 18.5974 26.4127C18.5974 28.4589 20.2607 30.1223 22.3069 30.1223C24.3531 30.1223 26.0165 28.4589 26.0165 26.4127C26.0165 24.3665 24.3531 22.7031 22.3069 22.7031Z" fill="white"/>
</svg>
